<?xml version="1.0" encoding="UTF-8"?><svg xmlns="http://www.w3.org/2000/svg" xmlns:xlink="http://www.w3.org/1999/xlink" stroke-dasharray="none" shape-rendering="auto" font-family="'Dialog'" width="767" text-rendering="auto" fill-opacity="1" contentScriptType="text/ecmascript" color-interpolation="auto" color-rendering="auto" preserveAspectRatio="xMidYMid meet" font-size="12" fill="black" stroke="black" image-rendering="auto" stroke-miterlimit="10" zoomAndPan="magnify" version="1.0" stroke-linecap="square" stroke-linejoin="miter" contentStyleType="text/css" font-style="normal" height="526" stroke-width="1" stroke-dashoffset="0" font-weight="normal" stroke-opacity="1">
    <!--Generated by the Batik Graphics2D SVG Generator-->
    <defs id="genericDefs"/>
    <g>
        <defs id="defs1">
            <clipPath clipPathUnits="userSpaceOnUse" id="clipPath1">
                <path d="M28 38 L739 38 L739 504 L28 504 L28 38 Z"/>
            </clipPath>
            <clipPath clipPathUnits="userSpaceOnUse" id="clipPath2">
                <path d="M-1 -1 L768 -1 L768 527 L-1 527 L-1 -1 Z"/>
            </clipPath>
            <clipPath clipPathUnits="userSpaceOnUse" id="clipPath3">
                <path d="M563 43 L735 43 L735 69 L563 69 L563 43 Z"/>
            </clipPath>
        </defs>
        <g font-size="14" fill="white" text-rendering="optimizeLegibility" font-family="'Ubuntu'" stroke-linejoin="round" stroke="white" stroke-width="0" stroke-miterlimit="0">
            <rect x="29" y="39" clip-path="url(#clipPath1)" width="709" height="464" stroke="none"/>
        </g>
        <g stroke-linecap="butt" font-size="14" fill="rgb(204,204,204)" text-rendering="optimizeLegibility" font-family="'Ubuntu'" stroke-dasharray="3,3" stroke="rgb(204,204,204)">
            <line clip-path="url(#clipPath1)" fill="none" x1="29" x2="29" y1="39" y2="503"/>
            <line clip-path="url(#clipPath1)" fill="none" x1="99" x2="99" y1="39" y2="503"/>
            <line clip-path="url(#clipPath1)" fill="none" x1="169" x2="169" y1="39" y2="503"/>
            <line clip-path="url(#clipPath1)" fill="none" x1="239" x2="239" y1="39" y2="503"/>
            <line clip-path="url(#clipPath1)" fill="none" x1="309" x2="309" y1="39" y2="503"/>
            <line clip-path="url(#clipPath1)" fill="none" x1="379" x2="379" y1="39" y2="503"/>
            <line clip-path="url(#clipPath1)" fill="none" x1="450" x2="450" y1="39" y2="503"/>
            <line clip-path="url(#clipPath1)" fill="none" x1="520" x2="520" y1="39" y2="503"/>
            <line clip-path="url(#clipPath1)" fill="none" x1="590" x2="590" y1="39" y2="503"/>
            <line clip-path="url(#clipPath1)" fill="none" x1="660" x2="660" y1="39" y2="503"/>
            <line clip-path="url(#clipPath1)" fill="none" x1="730" x2="730" y1="39" y2="503"/>
            <line clip-path="url(#clipPath1)" fill="none" x1="29" x2="738" y1="503" y2="503"/>
            <line clip-path="url(#clipPath1)" fill="none" x1="29" x2="738" y1="448" y2="448"/>
            <line clip-path="url(#clipPath1)" fill="none" x1="29" x2="738" y1="394" y2="394"/>
            <line clip-path="url(#clipPath1)" fill="none" x1="29" x2="738" y1="339" y2="339"/>
            <line clip-path="url(#clipPath1)" fill="none" x1="29" x2="738" y1="285" y2="285"/>
            <line clip-path="url(#clipPath1)" fill="none" x1="29" x2="738" y1="231" y2="231"/>
            <line clip-path="url(#clipPath1)" fill="none" x1="29" x2="738" y1="176" y2="176"/>
            <line clip-path="url(#clipPath1)" fill="none" x1="29" x2="738" y1="122" y2="122"/>
            <line clip-path="url(#clipPath1)" fill="none" x1="29" x2="738" y1="67" y2="67"/>
        </g>
        <g stroke-linecap="butt" font-size="14" fill="rgb(31,119,180)" text-rendering="optimizeLegibility" font-family="'Ubuntu'" stroke="rgb(31,119,180)" stroke-width="1.5">
            <line clip-path="url(#clipPath1)" fill="none" x1="33" x2="36" y1="285" y2="285"/>
            <line clip-path="url(#clipPath1)" fill="none" x1="36" x2="40" y1="285" y2="285"/>
            <line clip-path="url(#clipPath1)" fill="none" x1="40" x2="47" y1="285" y2="285"/>
            <line clip-path="url(#clipPath1)" fill="none" x1="47" x2="50" y1="285" y2="285"/>
            <line clip-path="url(#clipPath1)" fill="none" x1="50" x2="57" y1="285" y2="285"/>
            <line clip-path="url(#clipPath1)" fill="none" x1="57" x2="60" y1="285" y2="285"/>
            <line clip-path="url(#clipPath1)" fill="none" x1="60" x2="66" y1="285" y2="285"/>
            <line clip-path="url(#clipPath1)" fill="none" x1="66" x2="68" y1="285" y2="285"/>
            <line clip-path="url(#clipPath1)" fill="none" x1="68" x2="72" y1="285" y2="285"/>
            <line clip-path="url(#clipPath1)" fill="none" x1="72" x2="75" y1="285" y2="285"/>
            <line clip-path="url(#clipPath1)" fill="none" x1="75" x2="77" y1="285" y2="285"/>
            <line clip-path="url(#clipPath1)" fill="none" x1="77" x2="79" y1="285" y2="285"/>
            <line clip-path="url(#clipPath1)" fill="none" x1="79" x2="80" y1="285" y2="285"/>
            <line clip-path="url(#clipPath1)" fill="none" x1="80" x2="88" y1="285" y2="285"/>
            <line clip-path="url(#clipPath1)" fill="none" x1="88" x2="89" y1="285" y2="208"/>
            <line clip-path="url(#clipPath1)" fill="none" x1="89" x2="100" y1="208" y2="285"/>
            <line clip-path="url(#clipPath1)" fill="none" x1="100" x2="101" y1="285" y2="285"/>
            <line clip-path="url(#clipPath1)" fill="none" x1="101" x2="103" y1="285" y2="285"/>
            <line clip-path="url(#clipPath1)" fill="none" x1="103" x2="105" y1="285" y2="285"/>
            <line clip-path="url(#clipPath1)" fill="none" x1="105" x2="110" y1="285" y2="285"/>
            <line clip-path="url(#clipPath1)" fill="none" x1="110" x2="116" y1="285" y2="285"/>
            <line clip-path="url(#clipPath1)" fill="none" x1="116" x2="119" y1="285" y2="285"/>
            <line clip-path="url(#clipPath1)" fill="none" x1="119" x2="121" y1="285" y2="285"/>
            <line clip-path="url(#clipPath1)" fill="none" x1="121" x2="124" y1="285" y2="285"/>
            <line clip-path="url(#clipPath1)" fill="none" x1="124" x2="126" y1="285" y2="285"/>
            <line clip-path="url(#clipPath1)" fill="none" x1="126" x2="135" y1="285" y2="285"/>
            <line clip-path="url(#clipPath1)" fill="none" x1="135" x2="141" y1="285" y2="285"/>
            <line clip-path="url(#clipPath1)" fill="none" x1="141" x2="142" y1="285" y2="216"/>
            <line clip-path="url(#clipPath1)" fill="none" x1="142" x2="143" y1="216" y2="285"/>
            <line clip-path="url(#clipPath1)" fill="none" x1="143" x2="144" y1="285" y2="226"/>
            <line clip-path="url(#clipPath1)" fill="none" x1="144" x2="147" y1="226" y2="285"/>
            <line clip-path="url(#clipPath1)" fill="none" x1="147" x2="148" y1="285" y2="187"/>
            <line clip-path="url(#clipPath1)" fill="none" x1="148" x2="149" y1="187" y2="285"/>
            <line clip-path="url(#clipPath1)" fill="none" x1="149" x2="155" y1="285" y2="285"/>
            <line clip-path="url(#clipPath1)" fill="none" x1="155" x2="166" y1="285" y2="285"/>
            <line clip-path="url(#clipPath1)" fill="none" x1="166" x2="171" y1="285" y2="285"/>
            <line clip-path="url(#clipPath1)" fill="none" x1="171" x2="172" y1="285" y2="258"/>
            <line clip-path="url(#clipPath1)" fill="none" x1="172" x2="179" y1="258" y2="285"/>
            <line clip-path="url(#clipPath1)" fill="none" x1="179" x2="186" y1="285" y2="285"/>
            <line clip-path="url(#clipPath1)" fill="none" x1="186" x2="200" y1="285" y2="285"/>
            <line clip-path="url(#clipPath1)" fill="none" x1="200" x2="202" y1="285" y2="285"/>
            <line clip-path="url(#clipPath1)" fill="none" x1="202" x2="208" y1="285" y2="285"/>
            <line clip-path="url(#clipPath1)" fill="none" x1="208" x2="213" y1="285" y2="285"/>
            <line clip-path="url(#clipPath1)" fill="none" x1="213" x2="215" y1="285" y2="285"/>
            <line clip-path="url(#clipPath1)" fill="none" x1="215" x2="218" y1="285" y2="285"/>
            <line clip-path="url(#clipPath1)" fill="none" x1="218" x2="223" y1="285" y2="285"/>
            <line clip-path="url(#clipPath1)" fill="none" x1="223" x2="227" y1="285" y2="285"/>
            <line clip-path="url(#clipPath1)" fill="none" x1="227" x2="228" y1="285" y2="245"/>
            <line clip-path="url(#clipPath1)" fill="none" x1="228" x2="232" y1="245" y2="285"/>
            <line clip-path="url(#clipPath1)" fill="none" x1="232" x2="236" y1="285" y2="285"/>
            <line clip-path="url(#clipPath1)" fill="none" x1="236" x2="239" y1="285" y2="285"/>
            <line clip-path="url(#clipPath1)" fill="none" x1="239" x2="240" y1="285" y2="260"/>
            <line clip-path="url(#clipPath1)" fill="none" x1="240" x2="242" y1="260" y2="285"/>
            <line clip-path="url(#clipPath1)" fill="none" x1="242" x2="252" y1="285" y2="285"/>
            <line clip-path="url(#clipPath1)" fill="none" x1="252" x2="257" y1="285" y2="285"/>
            <line clip-path="url(#clipPath1)" fill="none" x1="257" x2="260" y1="285" y2="285"/>
            <line clip-path="url(#clipPath1)" fill="none" x1="260" x2="261" y1="285" y2="237"/>
            <line clip-path="url(#clipPath1)" fill="none" x1="261" x2="262" y1="237" y2="285"/>
            <line clip-path="url(#clipPath1)" fill="none" x1="262" x2="264" y1="285" y2="285"/>
            <line clip-path="url(#clipPath1)" fill="none" x1="264" x2="265" y1="285" y2="285"/>
            <line clip-path="url(#clipPath1)" fill="none" x1="265" x2="266" y1="285" y2="285"/>
            <line clip-path="url(#clipPath1)" fill="none" x1="266" x2="271" y1="285" y2="285"/>
            <line clip-path="url(#clipPath1)" fill="none" x1="271" x2="276" y1="285" y2="285"/>
            <line clip-path="url(#clipPath1)" fill="none" x1="276" x2="278" y1="285" y2="285"/>
            <line clip-path="url(#clipPath1)" fill="none" x1="278" x2="279" y1="285" y2="285"/>
            <line clip-path="url(#clipPath1)" fill="none" x1="279" x2="282" y1="285" y2="285"/>
            <line clip-path="url(#clipPath1)" fill="none" x1="282" x2="283" y1="285" y2="255"/>
            <line clip-path="url(#clipPath1)" fill="none" text-rendering="geometricPrecision" x1="283" x2="283" y1="255" y2="157" shape-rendering="crispEdges"/>
            <line clip-path="url(#clipPath1)" fill="none" x1="283" x2="284" y1="157" y2="261"/>
            <line clip-path="url(#clipPath1)" fill="none" x1="284" x2="287" y1="261" y2="285"/>
            <line clip-path="url(#clipPath1)" fill="none" x1="287" x2="288" y1="285" y2="264"/>
            <line clip-path="url(#clipPath1)" fill="none" x1="288" x2="291" y1="264" y2="285"/>
            <line clip-path="url(#clipPath1)" fill="none" x1="291" x2="292" y1="285" y2="285"/>
            <line clip-path="url(#clipPath1)" fill="none" x1="292" x2="295" y1="285" y2="285"/>
            <line clip-path="url(#clipPath1)" fill="none" x1="295" x2="297" y1="285" y2="285"/>
            <line clip-path="url(#clipPath1)" fill="none" x1="297" x2="307" y1="285" y2="285"/>
            <line clip-path="url(#clipPath1)" fill="none" x1="307" x2="315" y1="285" y2="285"/>
            <line clip-path="url(#clipPath1)" fill="none" x1="315" x2="319" y1="285" y2="285"/>
            <line clip-path="url(#clipPath1)" fill="none" x1="319" x2="322" y1="285" y2="285"/>
            <line clip-path="url(#clipPath1)" fill="none" x1="322" x2="323" y1="285" y2="285"/>
            <line clip-path="url(#clipPath1)" fill="none" x1="323" x2="326" y1="285" y2="285"/>
            <line clip-path="url(#clipPath1)" fill="none" x1="326" x2="328" y1="285" y2="285"/>
            <line clip-path="url(#clipPath1)" fill="none" x1="328" x2="337" y1="285" y2="285"/>
            <line clip-path="url(#clipPath1)" fill="none" x1="337" x2="341" y1="285" y2="285"/>
            <line clip-path="url(#clipPath1)" fill="none" x1="341" x2="342" y1="285" y2="233"/>
            <line clip-path="url(#clipPath1)" fill="none" text-rendering="geometricPrecision" x1="342" x2="342" y1="233" y2="158" shape-rendering="crispEdges"/>
            <line clip-path="url(#clipPath1)" fill="none" x1="342" x2="354" y1="158" y2="285"/>
            <line clip-path="url(#clipPath1)" fill="none" x1="354" x2="358" y1="285" y2="285"/>
            <line clip-path="url(#clipPath1)" fill="none" x1="358" x2="361" y1="285" y2="285"/>
            <line clip-path="url(#clipPath1)" fill="none" x1="361" x2="365" y1="285" y2="285"/>
            <line clip-path="url(#clipPath1)" fill="none" x1="365" x2="366" y1="285" y2="278"/>
            <line clip-path="url(#clipPath1)" fill="none" x1="366" x2="367" y1="278" y2="285"/>
            <line clip-path="url(#clipPath1)" fill="none" x1="367" x2="368" y1="285" y2="285"/>
            <line clip-path="url(#clipPath1)" fill="none" x1="368" x2="369" y1="285" y2="251"/>
            <line clip-path="url(#clipPath1)" fill="none" x1="369" x2="374" y1="251" y2="285"/>
            <line clip-path="url(#clipPath1)" fill="none" x1="374" x2="375" y1="285" y2="285"/>
            <line clip-path="url(#clipPath1)" fill="none" x1="375" x2="378" y1="285" y2="285"/>
            <line clip-path="url(#clipPath1)" fill="none" x1="378" x2="380" y1="285" y2="285"/>
            <line clip-path="url(#clipPath1)" fill="none" x1="380" x2="381" y1="285" y2="285"/>
            <line clip-path="url(#clipPath1)" fill="none" x1="381" x2="384" y1="285" y2="285"/>
            <line clip-path="url(#clipPath1)" fill="none" x1="384" x2="385" y1="285" y2="197"/>
            <line clip-path="url(#clipPath1)" fill="none" x1="385" x2="386" y1="197" y2="285"/>
            <line clip-path="url(#clipPath1)" fill="none" x1="386" x2="390" y1="285" y2="285"/>
            <line clip-path="url(#clipPath1)" fill="none" x1="390" x2="405" y1="285" y2="285"/>
            <line clip-path="url(#clipPath1)" fill="none" x1="405" x2="417" y1="285" y2="285"/>
            <line clip-path="url(#clipPath1)" fill="none" text-rendering="geometricPrecision" x1="417" x2="417" y1="285" y2="235" shape-rendering="crispEdges"/>
            <line clip-path="url(#clipPath1)" fill="none" x1="417" x2="421" y1="235" y2="285"/>
            <line clip-path="url(#clipPath1)" fill="none" x1="421" x2="422" y1="285" y2="285"/>
            <line clip-path="url(#clipPath1)" fill="none" x1="422" x2="425" y1="285" y2="285"/>
            <line clip-path="url(#clipPath1)" fill="none" x1="425" x2="426" y1="285" y2="272"/>
            <line clip-path="url(#clipPath1)" fill="none" x1="426" x2="444" y1="272" y2="285"/>
            <line clip-path="url(#clipPath1)" fill="none" x1="444" x2="448" y1="285" y2="285"/>
            <line clip-path="url(#clipPath1)" fill="none" x1="448" x2="451" y1="285" y2="285"/>
            <line clip-path="url(#clipPath1)" fill="none" x1="451" x2="452" y1="285" y2="285"/>
            <line clip-path="url(#clipPath1)" fill="none" x1="452" x2="454" y1="285" y2="285"/>
            <line clip-path="url(#clipPath1)" fill="none" x1="454" x2="456" y1="285" y2="285"/>
            <line clip-path="url(#clipPath1)" fill="none" x1="456" x2="459" y1="285" y2="285"/>
            <line clip-path="url(#clipPath1)" fill="none" x1="459" x2="460" y1="285" y2="285"/>
            <line clip-path="url(#clipPath1)" fill="none" x1="460" x2="463" y1="285" y2="285"/>
            <line clip-path="url(#clipPath1)" fill="none" x1="463" x2="464" y1="285" y2="270"/>
            <line clip-path="url(#clipPath1)" fill="none" x1="464" x2="465" y1="270" y2="285"/>
            <line clip-path="url(#clipPath1)" fill="none" x1="465" x2="466" y1="285" y2="240"/>
            <line clip-path="url(#clipPath1)" fill="none" x1="466" x2="469" y1="240" y2="285"/>
            <line clip-path="url(#clipPath1)" fill="none" x1="469" x2="473" y1="285" y2="285"/>
            <line clip-path="url(#clipPath1)" fill="none" x1="473" x2="475" y1="285" y2="285"/>
            <line clip-path="url(#clipPath1)" fill="none" text-rendering="geometricPrecision" x1="475" x2="475" y1="285" y2="257" shape-rendering="crispEdges"/>
            <line clip-path="url(#clipPath1)" fill="none" x1="475" x2="480" y1="257" y2="285"/>
            <line clip-path="url(#clipPath1)" fill="none" x1="480" x2="481" y1="285" y2="285"/>
            <line clip-path="url(#clipPath1)" fill="none" x1="481" x2="492" y1="285" y2="285"/>
            <line clip-path="url(#clipPath1)" fill="none" x1="492" x2="493" y1="285" y2="285"/>
            <line clip-path="url(#clipPath1)" fill="none" x1="493" x2="497" y1="285" y2="285"/>
            <line clip-path="url(#clipPath1)" fill="none" x1="497" x2="503" y1="285" y2="285"/>
            <line clip-path="url(#clipPath1)" fill="none" x1="503" x2="504" y1="285" y2="184"/>
            <line clip-path="url(#clipPath1)" fill="none" text-rendering="geometricPrecision" x1="504" x2="504" y1="184" y2="130" shape-rendering="crispEdges"/>
            <line clip-path="url(#clipPath1)" fill="none" x1="504" x2="507" y1="130" y2="285"/>
            <line clip-path="url(#clipPath1)" fill="none" x1="507" x2="513" y1="285" y2="285"/>
            <line clip-path="url(#clipPath1)" fill="none" x1="513" x2="517" y1="285" y2="285"/>
            <line clip-path="url(#clipPath1)" fill="none" x1="517" x2="518" y1="285" y2="231"/>
            <line clip-path="url(#clipPath1)" fill="none" x1="518" x2="530" y1="231" y2="285"/>
            <line clip-path="url(#clipPath1)" fill="none" x1="530" x2="543" y1="285" y2="285"/>
            <line clip-path="url(#clipPath1)" fill="none" x1="543" x2="551" y1="285" y2="285"/>
            <line clip-path="url(#clipPath1)" fill="none" x1="551" x2="553" y1="285" y2="285"/>
            <line clip-path="url(#clipPath1)" fill="none" x1="553" x2="555" y1="285" y2="285"/>
            <line clip-path="url(#clipPath1)" fill="none" x1="555" x2="569" y1="285" y2="285"/>
            <line clip-path="url(#clipPath1)" fill="none" text-rendering="geometricPrecision" x1="569" x2="569" y1="285" y2="207" shape-rendering="crispEdges"/>
            <line clip-path="url(#clipPath1)" fill="none" x1="569" x2="572" y1="207" y2="285"/>
            <line clip-path="url(#clipPath1)" fill="none" x1="572" x2="574" y1="285" y2="285"/>
            <line clip-path="url(#clipPath1)" fill="none" x1="574" x2="579" y1="285" y2="285"/>
            <line clip-path="url(#clipPath1)" fill="none" x1="579" x2="580" y1="285" y2="187"/>
            <line clip-path="url(#clipPath1)" fill="none" text-rendering="geometricPrecision" x1="580" x2="580" y1="187" y2="100" shape-rendering="crispEdges"/>
            <line clip-path="url(#clipPath1)" fill="none" x1="580" x2="581" y1="100" y2="285"/>
            <line clip-path="url(#clipPath1)" fill="none" x1="581" x2="582" y1="285" y2="285"/>
            <line clip-path="url(#clipPath1)" fill="none" x1="582" x2="596" y1="285" y2="285"/>
            <line clip-path="url(#clipPath1)" fill="none" x1="596" x2="597" y1="285" y2="246"/>
            <line clip-path="url(#clipPath1)" fill="none" x1="597" x2="598" y1="246" y2="285"/>
            <line clip-path="url(#clipPath1)" fill="none" x1="598" x2="599" y1="285" y2="285"/>
            <line clip-path="url(#clipPath1)" fill="none" x1="599" x2="601" y1="285" y2="285"/>
            <line clip-path="url(#clipPath1)" fill="none" x1="601" x2="602" y1="285" y2="245"/>
            <line clip-path="url(#clipPath1)" fill="none" x1="602" x2="606" y1="245" y2="285"/>
            <line clip-path="url(#clipPath1)" fill="none" x1="606" x2="607" y1="285" y2="285"/>
            <line clip-path="url(#clipPath1)" fill="none" x1="607" x2="615" y1="285" y2="285"/>
            <line clip-path="url(#clipPath1)" fill="none" x1="615" x2="617" y1="285" y2="285"/>
            <line clip-path="url(#clipPath1)" fill="none" x1="617" x2="625" y1="285" y2="285"/>
            <line clip-path="url(#clipPath1)" fill="none" x1="625" x2="626" y1="285" y2="212"/>
            <line clip-path="url(#clipPath1)" fill="none" x1="626" x2="627" y1="212" y2="236"/>
            <line clip-path="url(#clipPath1)" fill="none" x1="627" x2="631" y1="236" y2="285"/>
            <line clip-path="url(#clipPath1)" fill="none" x1="631" x2="634" y1="285" y2="285"/>
            <line clip-path="url(#clipPath1)" fill="none" x1="634" x2="637" y1="285" y2="285"/>
            <line clip-path="url(#clipPath1)" fill="none" x1="637" x2="644" y1="285" y2="285"/>
            <line clip-path="url(#clipPath1)" fill="none" x1="644" x2="645" y1="285" y2="285"/>
            <line clip-path="url(#clipPath1)" fill="none" x1="645" x2="647" y1="285" y2="285"/>
            <line clip-path="url(#clipPath1)" fill="none" x1="647" x2="650" y1="285" y2="285"/>
            <line clip-path="url(#clipPath1)" fill="none" x1="650" x2="658" y1="285" y2="285"/>
            <line clip-path="url(#clipPath1)" fill="none" x1="658" x2="659" y1="285" y2="230"/>
            <line clip-path="url(#clipPath1)" fill="none" x1="659" x2="668" y1="230" y2="285"/>
            <line clip-path="url(#clipPath1)" fill="none" x1="668" x2="671" y1="285" y2="285"/>
            <line clip-path="url(#clipPath1)" fill="none" text-rendering="geometricPrecision" x1="671" x2="671" y1="285" y2="223" shape-rendering="crispEdges"/>
            <line clip-path="url(#clipPath1)" fill="none" x1="671" x2="680" y1="223" y2="285"/>
            <line clip-path="url(#clipPath1)" fill="none" x1="680" x2="681" y1="285" y2="285"/>
            <line clip-path="url(#clipPath1)" fill="none" x1="681" x2="683" y1="285" y2="285"/>
            <line clip-path="url(#clipPath1)" fill="none" text-rendering="geometricPrecision" x1="683" x2="683" y1="285" y2="181" shape-rendering="crispEdges"/>
            <line clip-path="url(#clipPath1)" fill="none" x1="683" x2="687" y1="181" y2="285"/>
            <line clip-path="url(#clipPath1)" fill="none" x1="687" x2="693" y1="285" y2="285"/>
            <line clip-path="url(#clipPath1)" fill="none" x1="693" x2="694" y1="285" y2="253"/>
            <line clip-path="url(#clipPath1)" fill="none" x1="694" x2="697" y1="253" y2="285"/>
            <line clip-path="url(#clipPath1)" fill="none" x1="697" x2="702" y1="285" y2="285"/>
            <line clip-path="url(#clipPath1)" fill="none" x1="702" x2="708" y1="285" y2="285"/>
            <line clip-path="url(#clipPath1)" fill="none" x1="708" x2="709" y1="285" y2="285"/>
            <line clip-path="url(#clipPath1)" fill="none" x1="709" x2="710" y1="285" y2="285"/>
            <line clip-path="url(#clipPath1)" fill="none" x1="710" x2="711" y1="285" y2="285"/>
            <line clip-path="url(#clipPath1)" fill="none" x1="711" x2="713" y1="285" y2="285"/>
            <line clip-path="url(#clipPath1)" fill="none" x1="713" x2="716" y1="285" y2="285"/>
            <line clip-path="url(#clipPath1)" fill="none" x1="716" x2="719" y1="285" y2="285"/>
            <line clip-path="url(#clipPath1)" fill="none" x1="719" x2="720" y1="285" y2="187"/>
            <line clip-path="url(#clipPath1)" fill="none" text-rendering="geometricPrecision" x1="720" x2="720" y1="187" y2="176" shape-rendering="crispEdges"/>
            <line clip-path="url(#clipPath1)" fill="none" x1="720" x2="726" y1="176" y2="285"/>
            <line clip-path="url(#clipPath1)" fill="none" x1="726" x2="727" y1="285" y2="285"/>
            <line clip-path="url(#clipPath1)" fill="none" x1="727" x2="728" y1="285" y2="179"/>
            <line clip-path="url(#clipPath1)" fill="none" x1="728" x2="729" y1="179" y2="156"/>
            <rect x="29" y="39" clip-path="url(#clipPath2)" fill="none" width="709" height="464" stroke="black" stroke-width="1"/>
        </g>
        <g text-rendering="optimizeLegibility" font-size="13" stroke-linecap="butt">
            <text xml:space="preserve" x="295" y="13" clip-path="url(#clipPath2)" stroke="none">Delay in Network.nodeRx.sink</text>
            <rect x="564" y="44" clip-path="url(#clipPath3)" fill="white" width="169" opacity="0.7529" height="23" stroke="none"/>
            <line clip-path="url(#clipPath3)" fill="none" x1="570" x2="584" y1="55" y2="55" stroke="rgb(31,119,180)" stroke-width="2"/>
            <text x="586" font-size="10" y="59" clip-path="url(#clipPath3)" stroke="none" stroke-width="2" xml:space="preserve">Delay in Network.nodeRx.sink</text>
            <line clip-path="url(#clipPath2)" fill="none" x1="29" x2="738" y1="37" y2="37"/>
            <line clip-path="url(#clipPath2)" fill="none" x1="29" x2="738" y1="505" y2="505"/>
            <line clip-path="url(#clipPath2)" fill="none" x1="29" x2="29" y1="33" y2="37"/>
            <line clip-path="url(#clipPath2)" fill="none" x1="29" x2="29" y1="509" y2="505"/>
            <text x="27" font-size="10" y="30" clip-path="url(#clipPath2)" stroke="none" xml:space="preserve">0</text>
            <text x="27" font-size="10" y="520" clip-path="url(#clipPath2)" stroke="none" xml:space="preserve">0</text>
            <line clip-path="url(#clipPath2)" fill="none" x1="64" x2="64" y1="35" y2="37"/>
            <line clip-path="url(#clipPath2)" fill="none" x1="64" x2="64" y1="507" y2="505"/>
            <line clip-path="url(#clipPath2)" fill="none" x1="99" x2="99" y1="33" y2="37"/>
            <line clip-path="url(#clipPath2)" fill="none" x1="99" x2="99" y1="509" y2="505"/>
            <text x="94" font-size="10" y="30" clip-path="url(#clipPath2)" stroke="none" xml:space="preserve">20</text>
            <text x="94" font-size="10" y="520" clip-path="url(#clipPath2)" stroke="none" xml:space="preserve">20</text>
            <line clip-path="url(#clipPath2)" fill="none" x1="134" x2="134" y1="35" y2="37"/>
            <line clip-path="url(#clipPath2)" fill="none" x1="134" x2="134" y1="507" y2="505"/>
            <line clip-path="url(#clipPath2)" fill="none" x1="169" x2="169" y1="33" y2="37"/>
            <line clip-path="url(#clipPath2)" fill="none" x1="169" x2="169" y1="509" y2="505"/>
            <text x="164" font-size="10" y="30" clip-path="url(#clipPath2)" stroke="none" xml:space="preserve">40</text>
            <text x="164" font-size="10" y="520" clip-path="url(#clipPath2)" stroke="none" xml:space="preserve">40</text>
            <line clip-path="url(#clipPath2)" fill="none" x1="204" x2="204" y1="35" y2="37"/>
            <line clip-path="url(#clipPath2)" fill="none" x1="204" x2="204" y1="507" y2="505"/>
            <line clip-path="url(#clipPath2)" fill="none" x1="239" x2="239" y1="33" y2="37"/>
            <line clip-path="url(#clipPath2)" fill="none" x1="239" x2="239" y1="509" y2="505"/>
            <text x="234" font-size="10" y="30" clip-path="url(#clipPath2)" stroke="none" xml:space="preserve">60</text>
            <text x="234" font-size="10" y="520" clip-path="url(#clipPath2)" stroke="none" xml:space="preserve">60</text>
            <line clip-path="url(#clipPath2)" fill="none" x1="274" x2="274" y1="35" y2="37"/>
            <line clip-path="url(#clipPath2)" fill="none" x1="274" x2="274" y1="507" y2="505"/>
            <line clip-path="url(#clipPath2)" fill="none" x1="309" x2="309" y1="33" y2="37"/>
            <line clip-path="url(#clipPath2)" fill="none" x1="309" x2="309" y1="509" y2="505"/>
            <text x="304" font-size="10" y="30" clip-path="url(#clipPath2)" stroke="none" xml:space="preserve">80</text>
            <text x="304" font-size="10" y="520" clip-path="url(#clipPath2)" stroke="none" xml:space="preserve">80</text>
            <line clip-path="url(#clipPath2)" fill="none" x1="344" x2="344" y1="35" y2="37"/>
            <line clip-path="url(#clipPath2)" fill="none" x1="344" x2="344" y1="507" y2="505"/>
            <line clip-path="url(#clipPath2)" fill="none" x1="379" x2="379" y1="33" y2="37"/>
            <line clip-path="url(#clipPath2)" fill="none" x1="379" x2="379" y1="509" y2="505"/>
            <text x="370" font-size="10" y="30" clip-path="url(#clipPath2)" stroke="none" xml:space="preserve">100</text>
            <text x="370" font-size="10" y="520" clip-path="url(#clipPath2)" stroke="none" xml:space="preserve">100</text>
            <line clip-path="url(#clipPath2)" fill="none" x1="414" x2="414" y1="35" y2="37"/>
            <line clip-path="url(#clipPath2)" fill="none" x1="414" x2="414" y1="507" y2="505"/>
            <line clip-path="url(#clipPath2)" fill="none" x1="450" x2="450" y1="33" y2="37"/>
            <line clip-path="url(#clipPath2)" fill="none" x1="450" x2="450" y1="509" y2="505"/>
            <text x="441" font-size="10" y="30" clip-path="url(#clipPath2)" stroke="none" xml:space="preserve">120</text>
            <text x="441" font-size="10" y="520" clip-path="url(#clipPath2)" stroke="none" xml:space="preserve">120</text>
            <line clip-path="url(#clipPath2)" fill="none" x1="485" x2="485" y1="35" y2="37"/>
            <line clip-path="url(#clipPath2)" fill="none" x1="485" x2="485" y1="507" y2="505"/>
            <line clip-path="url(#clipPath2)" fill="none" x1="520" x2="520" y1="33" y2="37"/>
            <line clip-path="url(#clipPath2)" fill="none" x1="520" x2="520" y1="509" y2="505"/>
            <text x="511" font-size="10" y="30" clip-path="url(#clipPath2)" stroke="none" xml:space="preserve">140</text>
            <text x="511" font-size="10" y="520" clip-path="url(#clipPath2)" stroke="none" xml:space="preserve">140</text>
            <line clip-path="url(#clipPath2)" fill="none" x1="555" x2="555" y1="35" y2="37"/>
            <line clip-path="url(#clipPath2)" fill="none" x1="555" x2="555" y1="507" y2="505"/>
            <line clip-path="url(#clipPath2)" fill="none" x1="590" x2="590" y1="33" y2="37"/>
            <line clip-path="url(#clipPath2)" fill="none" x1="590" x2="590" y1="509" y2="505"/>
            <text x="581" font-size="10" y="30" clip-path="url(#clipPath2)" stroke="none" xml:space="preserve">160</text>
            <text x="581" font-size="10" y="520" clip-path="url(#clipPath2)" stroke="none" xml:space="preserve">160</text>
            <line clip-path="url(#clipPath2)" fill="none" x1="625" x2="625" y1="35" y2="37"/>
            <line clip-path="url(#clipPath2)" fill="none" x1="625" x2="625" y1="507" y2="505"/>
            <line clip-path="url(#clipPath2)" fill="none" x1="660" x2="660" y1="33" y2="37"/>
            <line clip-path="url(#clipPath2)" fill="none" x1="660" x2="660" y1="509" y2="505"/>
            <text x="651" font-size="10" y="30" clip-path="url(#clipPath2)" stroke="none" xml:space="preserve">180</text>
            <text x="651" font-size="10" y="520" clip-path="url(#clipPath2)" stroke="none" xml:space="preserve">180</text>
            <line clip-path="url(#clipPath2)" fill="none" x1="695" x2="695" y1="35" y2="37"/>
            <line clip-path="url(#clipPath2)" fill="none" x1="695" x2="695" y1="507" y2="505"/>
            <line clip-path="url(#clipPath2)" fill="none" x1="730" x2="730" y1="33" y2="37"/>
            <line clip-path="url(#clipPath2)" fill="none" x1="730" x2="730" y1="509" y2="505"/>
            <text x="721" font-size="10" y="30" clip-path="url(#clipPath2)" stroke="none" xml:space="preserve">200</text>
            <text x="721" font-size="10" y="520" clip-path="url(#clipPath2)" stroke="none" xml:space="preserve">200</text>
            <line clip-path="url(#clipPath2)" fill="none" x1="27" x2="27" y1="39" y2="503"/>
            <line clip-path="url(#clipPath2)" fill="none" x1="740" x2="740" y1="39" y2="503"/>
            <line clip-path="url(#clipPath2)" fill="none" x1="23" x2="27" y1="503" y2="503"/>
            <line clip-path="url(#clipPath2)" fill="none" x1="744" x2="740" y1="503" y2="503"/>
            <text x="15" font-size="10" y="507" clip-path="url(#clipPath2)" stroke="none" xml:space="preserve">0</text>
            <text x="747" font-size="10" y="507" clip-path="url(#clipPath2)" stroke="none" xml:space="preserve">0</text>
            <line clip-path="url(#clipPath2)" fill="none" x1="25" x2="27" y1="492" y2="492"/>
            <line clip-path="url(#clipPath2)" fill="none" x1="742" x2="740" y1="492" y2="492"/>
            <line clip-path="url(#clipPath2)" fill="none" x1="25" x2="27" y1="481" y2="481"/>
            <line clip-path="url(#clipPath2)" fill="none" x1="742" x2="740" y1="481" y2="481"/>
            <line clip-path="url(#clipPath2)" fill="none" x1="25" x2="27" y1="470" y2="470"/>
            <line clip-path="url(#clipPath2)" fill="none" x1="742" x2="740" y1="470" y2="470"/>
            <line clip-path="url(#clipPath2)" fill="none" x1="25" x2="27" y1="459" y2="459"/>
            <line clip-path="url(#clipPath2)" fill="none" x1="742" x2="740" y1="459" y2="459"/>
            <line clip-path="url(#clipPath2)" fill="none" x1="23" x2="27" y1="448" y2="448"/>
            <line clip-path="url(#clipPath2)" fill="none" x1="744" x2="740" y1="448" y2="448"/>
            <text x="6" font-size="10" y="452" clip-path="url(#clipPath2)" stroke="none" xml:space="preserve">0.1</text>
            <text x="747" font-size="10" y="452" clip-path="url(#clipPath2)" stroke="none" xml:space="preserve">0.1</text>
            <line clip-path="url(#clipPath2)" fill="none" x1="25" x2="27" y1="437" y2="437"/>
            <line clip-path="url(#clipPath2)" fill="none" x1="742" x2="740" y1="437" y2="437"/>
            <line clip-path="url(#clipPath2)" fill="none" x1="25" x2="27" y1="426" y2="426"/>
            <line clip-path="url(#clipPath2)" fill="none" x1="742" x2="740" y1="426" y2="426"/>
            <line clip-path="url(#clipPath2)" fill="none" x1="25" x2="27" y1="415" y2="415"/>
            <line clip-path="url(#clipPath2)" fill="none" x1="742" x2="740" y1="415" y2="415"/>
            <line clip-path="url(#clipPath2)" fill="none" x1="25" x2="27" y1="405" y2="405"/>
            <line clip-path="url(#clipPath2)" fill="none" x1="742" x2="740" y1="405" y2="405"/>
            <line clip-path="url(#clipPath2)" fill="none" x1="23" x2="27" y1="394" y2="394"/>
            <line clip-path="url(#clipPath2)" fill="none" x1="744" x2="740" y1="394" y2="394"/>
            <text x="6" font-size="10" y="398" clip-path="url(#clipPath2)" stroke="none" xml:space="preserve">0.2</text>
            <text x="747" font-size="10" y="398" clip-path="url(#clipPath2)" stroke="none" xml:space="preserve">0.2</text>
            <line clip-path="url(#clipPath2)" fill="none" x1="25" x2="27" y1="383" y2="383"/>
            <line clip-path="url(#clipPath2)" fill="none" x1="742" x2="740" y1="383" y2="383"/>
            <line clip-path="url(#clipPath2)" fill="none" x1="25" x2="27" y1="372" y2="372"/>
            <line clip-path="url(#clipPath2)" fill="none" x1="742" x2="740" y1="372" y2="372"/>
            <line clip-path="url(#clipPath2)" fill="none" x1="25" x2="27" y1="361" y2="361"/>
            <line clip-path="url(#clipPath2)" fill="none" x1="742" x2="740" y1="361" y2="361"/>
            <line clip-path="url(#clipPath2)" fill="none" x1="25" x2="27" y1="350" y2="350"/>
            <line clip-path="url(#clipPath2)" fill="none" x1="742" x2="740" y1="350" y2="350"/>
            <line clip-path="url(#clipPath2)" fill="none" x1="23" x2="27" y1="339" y2="339"/>
            <line clip-path="url(#clipPath2)" fill="none" x1="744" x2="740" y1="339" y2="339"/>
            <text x="6" font-size="10" y="343" clip-path="url(#clipPath2)" stroke="none" xml:space="preserve">0.3</text>
            <text x="747" font-size="10" y="343" clip-path="url(#clipPath2)" stroke="none" xml:space="preserve">0.3</text>
            <line clip-path="url(#clipPath2)" fill="none" x1="25" x2="27" y1="328" y2="328"/>
            <line clip-path="url(#clipPath2)" fill="none" x1="742" x2="740" y1="328" y2="328"/>
            <line clip-path="url(#clipPath2)" fill="none" x1="25" x2="27" y1="318" y2="318"/>
            <line clip-path="url(#clipPath2)" fill="none" x1="742" x2="740" y1="318" y2="318"/>
            <line clip-path="url(#clipPath2)" fill="none" x1="25" x2="27" y1="307" y2="307"/>
            <line clip-path="url(#clipPath2)" fill="none" x1="742" x2="740" y1="307" y2="307"/>
            <line clip-path="url(#clipPath2)" fill="none" x1="25" x2="27" y1="296" y2="296"/>
            <line clip-path="url(#clipPath2)" fill="none" x1="742" x2="740" y1="296" y2="296"/>
            <line clip-path="url(#clipPath2)" fill="none" x1="23" x2="27" y1="285" y2="285"/>
            <line clip-path="url(#clipPath2)" fill="none" x1="744" x2="740" y1="285" y2="285"/>
            <text x="6" font-size="10" y="289" clip-path="url(#clipPath2)" stroke="none" xml:space="preserve">0.4</text>
            <text x="747" font-size="10" y="289" clip-path="url(#clipPath2)" stroke="none" xml:space="preserve">0.4</text>
            <line clip-path="url(#clipPath2)" fill="none" x1="25" x2="27" y1="274" y2="274"/>
            <line clip-path="url(#clipPath2)" fill="none" x1="742" x2="740" y1="274" y2="274"/>
            <line clip-path="url(#clipPath2)" fill="none" x1="25" x2="27" y1="263" y2="263"/>
            <line clip-path="url(#clipPath2)" fill="none" x1="742" x2="740" y1="263" y2="263"/>
            <line clip-path="url(#clipPath2)" fill="none" x1="25" x2="27" y1="252" y2="252"/>
            <line clip-path="url(#clipPath2)" fill="none" x1="742" x2="740" y1="252" y2="252"/>
            <line clip-path="url(#clipPath2)" fill="none" x1="25" x2="27" y1="241" y2="241"/>
            <line clip-path="url(#clipPath2)" fill="none" x1="742" x2="740" y1="241" y2="241"/>
            <line clip-path="url(#clipPath2)" fill="none" x1="23" x2="27" y1="231" y2="231"/>
            <line clip-path="url(#clipPath2)" fill="none" x1="744" x2="740" y1="231" y2="231"/>
            <text x="6" font-size="10" y="235" clip-path="url(#clipPath2)" stroke="none" xml:space="preserve">0.5</text>
            <text x="747" font-size="10" y="235" clip-path="url(#clipPath2)" stroke="none" xml:space="preserve">0.5</text>
            <line clip-path="url(#clipPath2)" fill="none" x1="25" x2="27" y1="220" y2="220"/>
            <line clip-path="url(#clipPath2)" fill="none" x1="742" x2="740" y1="220" y2="220"/>
            <line clip-path="url(#clipPath2)" fill="none" x1="25" x2="27" y1="209" y2="209"/>
            <line clip-path="url(#clipPath2)" fill="none" x1="742" x2="740" y1="209" y2="209"/>
            <line clip-path="url(#clipPath2)" fill="none" x1="25" x2="27" y1="198" y2="198"/>
            <line clip-path="url(#clipPath2)" fill="none" x1="742" x2="740" y1="198" y2="198"/>
            <line clip-path="url(#clipPath2)" fill="none" x1="25" x2="27" y1="187" y2="187"/>
            <line clip-path="url(#clipPath2)" fill="none" x1="742" x2="740" y1="187" y2="187"/>
            <line clip-path="url(#clipPath2)" fill="none" x1="23" x2="27" y1="176" y2="176"/>
            <line clip-path="url(#clipPath2)" fill="none" x1="744" x2="740" y1="176" y2="176"/>
            <text x="6" font-size="10" y="180" clip-path="url(#clipPath2)" stroke="none" xml:space="preserve">0.6</text>
            <text x="747" font-size="10" y="180" clip-path="url(#clipPath2)" stroke="none" xml:space="preserve">0.6</text>
            <line clip-path="url(#clipPath2)" fill="none" x1="25" x2="27" y1="165" y2="165"/>
            <line clip-path="url(#clipPath2)" fill="none" x1="742" x2="740" y1="165" y2="165"/>
            <line clip-path="url(#clipPath2)" fill="none" x1="25" x2="27" y1="154" y2="154"/>
            <line clip-path="url(#clipPath2)" fill="none" x1="742" x2="740" y1="154" y2="154"/>
            <line clip-path="url(#clipPath2)" fill="none" x1="25" x2="27" y1="144" y2="144"/>
            <line clip-path="url(#clipPath2)" fill="none" x1="742" x2="740" y1="144" y2="144"/>
            <line clip-path="url(#clipPath2)" fill="none" x1="25" x2="27" y1="133" y2="133"/>
            <line clip-path="url(#clipPath2)" fill="none" x1="742" x2="740" y1="133" y2="133"/>
            <line clip-path="url(#clipPath2)" fill="none" x1="23" x2="27" y1="122" y2="122"/>
            <line clip-path="url(#clipPath2)" fill="none" x1="744" x2="740" y1="122" y2="122"/>
            <text x="6" font-size="10" y="126" clip-path="url(#clipPath2)" stroke="none" xml:space="preserve">0.7</text>
            <text x="747" font-size="10" y="126" clip-path="url(#clipPath2)" stroke="none" xml:space="preserve">0.7</text>
            <line clip-path="url(#clipPath2)" fill="none" x1="25" x2="27" y1="111" y2="111"/>
            <line clip-path="url(#clipPath2)" fill="none" x1="742" x2="740" y1="111" y2="111"/>
            <line clip-path="url(#clipPath2)" fill="none" x1="25" x2="27" y1="100" y2="100"/>
            <line clip-path="url(#clipPath2)" fill="none" x1="742" x2="740" y1="100" y2="100"/>
            <line clip-path="url(#clipPath2)" fill="none" x1="25" x2="27" y1="89" y2="89"/>
            <line clip-path="url(#clipPath2)" fill="none" x1="742" x2="740" y1="89" y2="89"/>
            <line clip-path="url(#clipPath2)" fill="none" x1="25" x2="27" y1="78" y2="78"/>
            <line clip-path="url(#clipPath2)" fill="none" x1="742" x2="740" y1="78" y2="78"/>
            <line clip-path="url(#clipPath2)" fill="none" x1="23" x2="27" y1="67" y2="67"/>
            <line clip-path="url(#clipPath2)" fill="none" x1="744" x2="740" y1="67" y2="67"/>
            <text x="6" font-size="10" y="71" clip-path="url(#clipPath2)" stroke="none" xml:space="preserve">0.8</text>
            <text x="747" font-size="10" y="71" clip-path="url(#clipPath2)" stroke="none" xml:space="preserve">0.8</text>
            <line clip-path="url(#clipPath2)" fill="none" x1="25" x2="27" y1="57" y2="57"/>
            <line clip-path="url(#clipPath2)" fill="none" x1="742" x2="740" y1="57" y2="57"/>
            <line clip-path="url(#clipPath2)" fill="none" x1="25" x2="27" y1="46" y2="46"/>
            <line clip-path="url(#clipPath2)" fill="none" x1="742" x2="740" y1="46" y2="46"/>
        </g>
    </g>
</svg>
